<svg xmlns="http://www.w3.org/2000/svg" viewBox="0 0 385 463" height="463" width="385" style="width: 385px; height: 463px; position: absolute; top: 50%; left: 50%; z-index: 0; cursor: pointer; transform: translate(-50%, -50%) scale(0.362851);"><defs id="SvgjsDefs1390"></defs><g id="SvgjsG1391" featurekey="rootContainer" transform="matrix(1,0,0,1,0,0)" fill="#ff8264"><path xmlns="http://www.w3.org/2000/svg" fill-rule="evenodd" d=" M0,0 H385 V463 H0,0 z M2,2 H383 V461 H2,2 z M6,6 H379 V457 H6 z M8,8 H377 V455 H6,8 z "></path></g><g id="SvgjsG1392" featurekey="symbolFeature-0" transform="matrix(1.4569446560217425,0,0,1.4569446560217425,412.12304749143345,-689.258304470906)" fill="#ffaa64"><path xmlns="http://www.w3.org/2000/svg" d="M-170.135,578.303c0.454-0.156,2.115-0.154-0.188-2.578c3.122,3.455,9.589-4.169,1.047-6.586  c-2.301-0.651-8.682-0.416-7.771,3.715c0.182,0.431,2.15,2.244,2.212,2.066c-2.55-0.378-0.849,3.362,1.754,3.695  C-172.578,578.681-170.615,578.468-170.135,578.303z M-169.99,583.114c-4.578-3.207-9.181,1.028-4.439,2.784  c3.362,1.243,3.766,0.644,6.814,1.127c2.039,0.325,13.783,0.953,13.983-2.698c-0.486,0.044-0.053,0.966,0,0  c-3.618,0.328-7.356,1.097-8.933,1.4c-1.171,0.225-2.387-0.99-3.842-1.492L-169.99,583.114z M-149.358,559.469  c3.183-0.183,5.85,3.88,5.85,3.88s-2.667,4.273-5.577,4.183c-2.91-0.091-2.778-1.119-4.82-1.606  C-155.935,565.44-152.541,559.651-149.358,559.469z M-150.263,561.505c0.432-0.563,1.617,1.691,1.793,0.178  c0.061-0.516-0.121-0.758-2.091-0.729c-1.97,0.031-2.849,4.293-1.606,5.002c0.958,0.547,1.654,1.482,1.351,0.274  C-151.072,565.221-150.898,562.33-150.263,561.505z M-169.826,555.935c2.425,0,3.212,1.576,3.273,2.455  c0.061,0.88-1.516,4.335-3.092,4.335c-0.74,0-2.711-1.032-2.91-2.622C-172.778,558.31-171.113,555.935-169.826,555.935z   M-170.161,556.999c0.454-0.649-1.74,0.463-1.586,2.464c0.154,2,2.197,2.897,1.749,2.287c-1.653-2.251-0.432-5.154-0.878-4.322  c0.447,0.337,1.387-0.391,0.327-0.566C-170.617,556.85-170.201,557.057-170.161,556.999z M-167.596,557.553  c-0.243,0-0.439,0.21-0.439,0.47s0.197,0.47,0.439,0.47s0.439-0.21,0.439-0.47S-167.353,557.553-167.596,557.553z M-163.045,528.876  c1.307,0,3.15,1.674,5.478,4.975c1.695,2.403,3.252,5.148,3.471,6.118c0.121,0.539,1.139,1.682,1.626,1.826c0,0,0,0,0,0  c0.006,0,0.044,0.005,0.125,0.005c0.148,0,0.355-0.015,0.595-0.031c0.375-0.026,0.841-0.06,1.385-0.06  c1.927,0,3.748,0.467,5.508,0.918c1.671,0.428,3.25,0.833,4.835,0.833c0,0,0,0,0.001,0c0.154,0,0.308-0.005,0.458-0.012  c0.231-0.013,0.936-0.35,1.299-0.623c1.152-0.864,2.897-2.759,4.744-4.765c3.9-4.235,6.387-6.808,8.028-6.808  c0.476,0,0.885,0.212,1.152,0.597c0.87,1.252,1.222,2.171,1.395,3.642c0.019,0.161,0.042,0.34,0.068,0.538  c0.309,2.388,0.95,7.336-1.269,13.924c0.109,0.855,0.458,2.78,1.057,3.554c4.18,5.394,6.881,13.748,6.881,21.286  c0,8.841-3.556,17.152-10.013,23.401c-6.45,6.243-15.025,9.682-24.144,9.682c-9.12,0-17.694-3.438-24.145-9.682  c-6.457-6.249-10.013-14.561-10.013-23.401c0-6.207,1.676-12.184,4.845-17.283c0.402-0.646,0.674-1.374,0.962-2.144  c0.422-1.128,0.859-2.293,1.741-3.244c0.948-1.022,2.3-1.735,3.608-2.426c0.818-0.432,1.59-0.839,2.231-1.3  c1.727-1.241,3.596-2.329,5.556-3.233c0.429-0.506,0.281-3.615,0.183-5.679c-0.199-4.196-0.406-8.535,1.285-10.179  C-163.821,529.025-163.452,528.876-163.045,528.876 M-163.045,523.876c-1.712,0-3.328,0.655-4.552,1.846  c-3.305,3.213-3.044,8.694-2.793,13.996c0.025,0.524,0.067,1.41,0.089,2.24c-1.301,0.723-2.556,1.519-3.752,2.379  c-0.359,0.258-0.98,0.586-1.638,0.933c-1.535,0.811-3.425,1.808-4.95,3.453c-1.552,1.675-2.248,3.533-2.756,4.891  c-0.194,0.517-0.388,1.035-0.524,1.254c-3.665,5.896-5.601,12.785-5.601,19.926c0,10.208,4.097,19.795,11.535,26.994  c7.389,7.15,17.198,11.089,27.623,11.089c10.424,0,20.233-3.938,27.622-11.089c7.438-7.199,11.535-16.786,11.535-26.994  c0-8.561-2.936-17.722-7.682-24.025c-0.038-0.123-0.08-0.285-0.121-0.469c2.107-7.073,1.403-12.513,1.092-14.911  c-0.025-0.193-0.044-0.338-0.059-0.468c-0.27-2.293-0.923-4.005-2.256-5.923c-1.192-1.718-3.159-2.744-5.259-2.744  c-3.951,0-7.036,3.35-11.706,8.421c-1.21,1.313-2.665,2.894-3.576,3.733c-0.812-0.104-1.767-0.349-2.83-0.62  c-1.891-0.484-4.006-1.027-6.419-1.075c-1.137-2.399-3-5.092-3.459-5.743C-155.954,527.462-159.025,523.876-163.045,523.876  L-163.045,523.876z"></path></g><g id="SvgjsG1393" featurekey="nameFeature-0" transform="matrix(3.6570712914530947,0,0,3.6570712914530947,44.14868584648367,200.20626027754946)" fill="#ff8264"><path d="M1.6 23.16 c0 -11.16 0 -15.56 6 -15.56 s6 4.4 6 15.56 l0 21.64 l-3.8 0 l0.08 -4.68 c-0.64 0.2 -1.4 0.28 -2.28 0.28 c-6 0 -6 -4.44 -6 -17.24 z M5.36 23.16 c0 11.64 0 13.24 2.24 13.24 s2.24 -1.6 2.24 -13.24 c0 -10.4 0 -12.36 -2.24 -12.36 s-2.24 1.96 -2.24 12.36 z M17.6 40 l0 -32 l4 0 l0 32 l-4 0 z M24.8 30.240000000000002 l4.04 0 c0.08 5.16 0.48 6.16 1.92 6.16 c1.96 0 1.96 -1.64 1.96 -6 c0 -6.4 -7.92 -4.68 -7.92 -13.2 c0 -5 0 -9.6 6 -9.6 c4.44 0 5.64 2.52 5.92 8.56 l-4 0 c-0.16 -4.36 -0.64 -5.36 -1.92 -5.36 c-1.96 0 -1.96 2.16 -1.96 6.4 c0 6.2 7.96 4 7.96 13.2 c0 5.6 0 10 -6.04 10 c-4.64 0 -5.72 -2.76 -5.96 -10.16 z M39.8 23.16 l0 -15.16 l4 0 l0 15.16 c0 11.56 0 13.24 2 13.24 s2 -1.68 2 -13.24 l0 -15.16 l4 0 l0 15.16 c0 12.8 0 17.24 -6 17.24 s-6 -4.44 -6 -17.24 z M55.6 40 l0 -32 l3.6 0 l4.2 20 l0.4 0 l4.2 -20 l3.6 0 l0 32 l-4 0 l0 -16 l-2.84 16 l-2.4 0 l-2.76 -16 l0 16 l-4 0 z M75.6 40 l0 -32 l4 0 l0 32 l-4 0 z"></path></g><g id="SvgjsG1394" featurekey="sloganFeature-0" transform="matrix(2.8366383470085275,0,0,2.8366383470085275,71.90840683770782,358.2565762096516)" fill="#ffaa64"><path d="M2.5 18.72 l0 -10.72 c0 -0.32 0.16 -0.64 0.6 -0.64 l2.62 0 c1.98 0 3.06 0.72 3.06 2.72 c0 0.8 -0.1 1.58 -0.6 2.12 c1.14 0.8 1.34 2.18 1.34 3.58 c0 2.46 -1.34 3.62 -3.64 3.62 l-2.68 0 c-0.34 0 -0.7 -0.12 -0.7 -0.68 z M3.84 18.08 l1.74 0 c1.66 0 2.58 -0.68 2.58 -2.3 c0 -1.66 -0.42 -2.78 -2.04 -2.78 l-2.28 0 l0 5.08 z M7.46 10.08 c0 -1.2 -0.84 -1.38 -1.74 -1.38 l-1.88 0 l0 2.96 l1.84 0 c1.26 0 1.78 -0.36 1.78 -1.58 z M14 18.7 l0 -10.64 c0 -0.46 0.36 -0.7 0.7 -0.7 l4.6 0 c0.44 0 0.66 0.32 0.66 0.66 s-0.22 0.68 -0.66 0.68 l-3.96 0 l0 3.88 l3.14 0 c0.46 0 0.68 0.32 0.68 0.66 s-0.24 0.7 -0.68 0.7 l-3.14 0 l0 4.14 l3.96 0 c0.42 0 0.64 0.34 0.64 0.66 c0 0.34 -0.22 0.66 -0.64 0.66 l-4.6 0 c-0.34 0 -0.7 -0.12 -0.7 -0.7 z M32 18.76 l0 -10.76 c0 -0.42 0.32 -0.62 0.66 -0.62 s0.68 0.2 0.68 0.62 l0 4.58 l4.54 0 l0 -4.58 c0 -0.42 0.32 -0.64 0.64 -0.64 s0.66 0.22 0.66 0.64 l0 10.76 c0 0.42 -0.34 0.64 -0.66 0.64 s-0.64 -0.22 -0.64 -0.64 l0 -4.82 l-4.54 0 l0 4.82 c0 0.42 -0.34 0.64 -0.68 0.64 s-0.66 -0.22 -0.66 -0.64 z M50.14 18.86 l-0.78 -2.54 l-3.72 0 l-0.74 2.5 c-0.26 0.86 -1.58 0.6 -1.3 -0.28 c1.04 -3.5 2.06 -7.06 3.08 -10.6 c0.12 -0.38 0.44 -0.58 0.76 -0.58 c0.3 0 0.62 0.2 0.74 0.58 l3.18 10.6 c0.22 0.76 -0.96 1.18 -1.22 0.32 z M47.480000000000004 10.06 l-1.44 4.92 l2.94 0 c-0.5 -1.68 -0.96 -3.12 -1.5 -4.92 z M62.34 10.28 l0 2.5 c0 2.38 -1.24 3.14 -3.34 3.14 l-1.86 0 l0 2.84 c0 0.42 -0.34 0.64 -0.66 0.64 c-0.34 0 -0.66 -0.22 -0.66 -0.64 l0 -10.74 c0 -0.38 0.32 -0.66 0.66 -0.66 l2.7 0 c1.1 0 3.16 0.22 3.16 2.92 z M59.18000000000001 8.7 l-2.04 0 l0 5.86 l1.86 0 c0.98 0 2.04 -0.24 2.02 -1.8 l-0.02 -2.48 c0 -0.48 -0.08 -1.58 -1.82 -1.58 z M73.02000000000001 10.28 l0 2.5 c0 2.38 -1.24 3.14 -3.34 3.14 l-1.86 0 l0 2.84 c0 0.42 -0.34 0.64 -0.66 0.64 c-0.34 0 -0.66 -0.22 -0.66 -0.64 l0 -10.74 c0 -0.38 0.32 -0.66 0.66 -0.66 l2.7 0 c1.1 0 3.16 0.22 3.16 2.92 z M69.86 8.7 l-2.04 0 l0 5.86 l1.86 0 c0.98 0 2.04 -0.24 2.02 -1.8 l-0.02 -2.48 c0 -0.48 -0.08 -1.58 -1.82 -1.58 z M82.86 8.3 l-2.48 5.14 l0 5.32 c0 0.44 -0.32 0.64 -0.64 0.64 c-0.34 0 -0.66 -0.22 -0.66 -0.64 l0 -5.32 l-2.54 -5.12 c-0.42 -0.88 0.8 -1.4 1.22 -0.56 l1.98 3.96 l1.9 -3.94 c0.44 -0.92 1.64 -0.34 1.22 0.52 z"></path></g></svg>